<svg xmlns="http://www.w3.org/2000/svg" viewBox="0 0 24 24" width="24" height="24" color="#000000" fill="none">
    <defs />
    <path fill="currentColor" d="M18.866,9.572 C18.965,9.714 19.04,9.88 19.097,10.01 C19.131,10.089 19.17,10.187 19.21,10.283 L19.21,10.283 L19.21,10.284 C19.235,10.345 19.259,10.405 19.282,10.46 C19.413,10.773 19.565,11.107 19.78,11.429 C20.192,12.046 20.854,12.657 22.118,12.859 C22.528,12.925 22.806,13.309 22.741,13.719 C22.675,14.127 22.291,14.406 21.882,14.341 C20.531,14.125 19.624,13.539 19,12.859 L19,19 C19,21.1 17.236,22.75 15.125,22.75 C13.014,22.75 11.25,21.1 11.25,19 C11.25,16.9 13.014,15.25 15.125,15.25 C16.013,15.25 16.84,15.542 17.5,16.037 L17.5,10 C17.5,9.672 17.713,9.382 18.026,9.284 C18.339,9.186 18.679,9.303 18.866,9.572 Z M2,2.25 L20,2.25 C20.414,2.25 20.75,2.586 20.75,3 C20.75,3.414 20.414,3.75 20,3.75 L2,3.75 C1.586,3.75 1.25,3.414 1.25,3 C1.25,2.586 1.586,2.25 2,2.25 Z M2,9.25 L15,9.25 C15.414,9.25 15.75,9.586 15.75,10 C15.75,10.414 15.414,10.75 15,10.75 L2,10.75 C1.586,10.75 1.25,10.414 1.25,10 C1.25,9.586 1.586,9.25 2,9.25 Z M15.125,16.75 C13.784,16.75 12.75,17.786 12.75,19 C12.75,20.214 13.784,21.25 15.125,21.25 C16.466,21.25 17.5,20.214 17.5,19 C17.5,17.786 16.466,16.75 15.125,16.75 Z M1.25,17 C1.25,16.586 1.586,16.25 2,16.25 L9,16.25 C9.414,16.25 9.75,16.586 9.75,17 C9.75,17.414 9.414,17.75 9,17.75 L2,17.75 C1.586,17.75 1.25,17.414 1.25,17 Z" />
</svg>